<?xml version="1.0" encoding="UTF-8"?>
<svg xmlns="http://www.w3.org/2000/svg" width="148" height="137" viewBox="0 0 148 137" role="img" aria-label="Logo flor dorada">
  <title>Logo flor dorada</title>
  <g shape-rendering="geometricPrecision">
  <ellipse cx="75.50" cy="16.72" rx="11.96" ry="16.85" transform="rotate(0.00 75.50 16.72)" fill="#c39d4b" stroke="#000000" stroke-width="1.35"/>
  <ellipse cx="28.17" cy="19.16" rx="5.78" ry="13.34" transform="rotate(135.03 28.17 19.16)" fill="#c39d4b" stroke="#000000" stroke-width="1.35"/>
  <ellipse cx="122.84" cy="19.16" rx="5.61" ry="13.18" transform="rotate(45.24 122.84 19.16)" fill="#c39d4b" stroke="#000000" stroke-width="1.35"/>
  <ellipse cx="50.47" cy="22.74" rx="8.34" ry="11.82" transform="rotate(151.46 50.47 22.74)" fill="#c39d4b" stroke="#000000" stroke-width="1.35"/>
  <ellipse cx="100.55" cy="22.76" rx="8.28" ry="11.47" transform="rotate(29.75 100.55 22.76)" fill="#c39d4b" stroke="#000000" stroke-width="1.35"/>
  <ellipse cx="31.86" cy="41.47" rx="8.38" ry="11.66" transform="rotate(120.32 31.86 41.47)" fill="#c39d4b" stroke="#000000" stroke-width="1.35"/>
  <ellipse cx="119.22" cy="41.47" rx="8.30" ry="11.50" transform="rotate(59.50 119.22 41.47)" fill="#c39d4b" stroke="#000000" stroke-width="1.35"/>
  <ellipse cx="54.77" cy="45.63" rx="5.63" ry="9.23" transform="rotate(133.00 54.77 45.63)" fill="#c39d4b" stroke="#000000" stroke-width="1.35"/>
  <ellipse cx="75.50" cy="47.46" rx="8.32" ry="9.48" transform="rotate(0.00 75.50 47.46)" fill="#c39d4b" stroke="#000000" stroke-width="1.35"/>
  <ellipse cx="96.45" cy="45.55" rx="5.51" ry="9.31" transform="rotate(45.00 96.45 45.55)" fill="#c39d4b" stroke="#000000" stroke-width="1.35"/>
  <ellipse cx="25.72" cy="66.47" rx="11.99" ry="16.89" transform="rotate(89.81 25.72 66.47)" fill="#c39d4b" stroke="#000000" stroke-width="1.35"/>
  <ellipse cx="125.28" cy="66.47" rx="11.99" ry="16.89" transform="rotate(90.19 125.28 66.47)" fill="#c39d4b" stroke="#000000" stroke-width="1.35"/>
  <ellipse cx="56.50" cy="66.44" rx="8.23" ry="9.71" transform="rotate(90.00 56.50 66.44)" fill="#c39d4b" stroke="#000000" stroke-width="1.35"/>
  <ellipse cx="94.50" cy="66.44" rx="8.23" ry="9.71" transform="rotate(90.00 94.50 66.44)" fill="#c39d4b" stroke="#000000" stroke-width="1.35"/>
  <ellipse cx="75.50" cy="66.33" rx="5.50" ry="5.80" transform="rotate(0.00 75.50 66.33)" fill="#c39d4b" stroke="#000000" stroke-width="1.35"/>
  <ellipse cx="75.50" cy="85.30" rx="8.30" ry="9.57" transform="rotate(0.00 75.50 85.30)" fill="#c39d4b" stroke="#000000" stroke-width="1.35"/>
  <ellipse cx="54.68" cy="87.21" rx="5.60" ry="9.10" transform="rotate(44.47 54.68 87.21)" fill="#c39d4b" stroke="#000000" stroke-width="1.35"/>
  <ellipse cx="96.32" cy="87.21" rx="5.60" ry="9.10" transform="rotate(135.53 96.32 87.21)" fill="#c39d4b" stroke="#000000" stroke-width="1.35"/>
  <ellipse cx="31.79" cy="91.54" rx="8.33" ry="11.53" transform="rotate(58.60 31.79 91.54)" fill="#c39d4b" stroke="#000000" stroke-width="1.35"/>
  <ellipse cx="119.21" cy="91.54" rx="8.33" ry="11.53" transform="rotate(121.40 119.21 91.54)" fill="#c39d4b" stroke="#000000" stroke-width="1.35"/>
  <ellipse cx="50.47" cy="110.09" rx="8.32" ry="11.58" transform="rotate(29.06 50.47 110.09)" fill="#c39d4b" stroke="#000000" stroke-width="1.35"/>
  <ellipse cx="75.50" cy="116.16" rx="12.10" ry="16.90" transform="rotate(0.00 75.50 116.16)" fill="#c39d4b" stroke="#000000" stroke-width="1.35"/>
  <ellipse cx="100.53" cy="110.09" rx="8.32" ry="11.58" transform="rotate(150.94 100.53 110.09)" fill="#c39d4b" stroke="#000000" stroke-width="1.35"/>
  <ellipse cx="28.16" cy="113.77" rx="5.61" ry="13.11" transform="rotate(45.13 28.16 113.77)" fill="#c39d4b" stroke="#000000" stroke-width="1.35"/>
  <ellipse cx="122.87" cy="113.81" rx="5.61" ry="13.18" transform="rotate(135.04 122.87 113.81)" fill="#c39d4b" stroke="#000000" stroke-width="1.35"/>
  </g>
</svg>
